{
  "asset": {
    "version": "2.0",
    "generator": "THREE.GLTFExporter r170"
  },
  "scenes": [
    {
      "name": "Scene",
      "nodes": [
        33
      ]
    }
  ],
  "scene": 0,
  "nodes": [
    {
      "name": "stairs",
      "extras": {
        "name": "stairs"
      },
      "mesh": 0
    },
    {
      "matrix": [
        1,
        0,
        0,
        0,
        0,
        1,
        0,
        0,
        0,
        0,
        1,
        0,
        -3.174790735802406,
        -3.2366375696455423,
        2.754021796712777,
        1
      ],
      "name": "AmbientLight",
      "extras": {
        "name": "AmbientLight"
      }
    },
    {
      "matrix": [
        1,
        0,
        0,
        0,
        0,
        1,
        0,
        0,
        0,
        0,
        1,
        0,
        0,
        0,
        -9.540195307031873,
        1
      ],
      "name": "Escales",
      "extras": {
        "name": "Escales"
      },
      "children": [
        0,
        1
      ]
    },
    {
      "name": "Cube4465",
      "extras": {
        "name": "Cube4465"
      },
      "mesh": 1
    },
    {
      "name": "Cube4465_1",
      "extras": {
        "name": "Cube4465_1"
      },
      "mesh": 2
    },
    {
      "matrix": [
        1,
        0,
        0,
        0,
        0,
        1,
        0,
        0,
        0,
        0,
        1,
        0,
        0,
        0,
        -2.78294050350337,
        1
      ],
      "name": "pillar_broken",
      "extras": {
        "name": "pillar_broken"
      },
      "children": [
        3,
        4
      ]
    },
    {
      "matrix": [
        1,
        0,
        0,
        0,
        0,
        1,
        0,
        0,
        0,
        0,
        1,
        0,
        2.8469270118473986,
        0,
        0,
        1
      ],
      "name": "Pilar1B",
      "extras": {
        "name": "Pilar1B"
      },
      "children": [
        5
      ]
    },
    {
      "name": "Cube4465_1_1",
      "extras": {
        "name": "Cube4465"
      },
      "mesh": 1
    },
    {
      "name": "Cube4465_1_1",
      "extras": {
        "name": "Cube4465_1"
      },
      "mesh": 2
    },
    {
      "matrix": [
        1,
        0,
        0,
        0,
        0,
        1,
        0,
        0,
        0,
        0,
        1,
        0,
        -3.0089051859911673,
        0,
        -2.777742179916694,
        1
      ],
      "name": "Pilar1A",
      "extras": {
        "name": "pillar_broken"
      },
      "children": [
        7,
        8
      ]
    },
    {
      "matrix": [
        25,
        0,
        0,
        0,
        0,
        5.551115123125783e-15,
        -25,
        0,
        0,
        1,
        2.220446049250313e-16,
        0,
        0,
        0,
        0,
        1
      ],
      "name": "Terra",
      "extras": {
        "name": "Terra"
      },
      "mesh": 3
    },
    {
      "matrix": [
        1,
        0,
        0,
        0,
        0,
        1,
        0,
        0,
        0,
        0,
        1,
        0,
        0,
        0,
        -1,
        1
      ]
    },
    {
      "matrix": [
        1,
        0,
        0,
        0,
        0,
        1,
        0,
        0,
        0,
        0,
        1,
        0,
        0,
        0,
        -1,
        1
      ]
    },
    {
      "matrix": [
        1,
        0,
        0,
        0,
        0,
        1,
        0,
        0,
        0,
        0,
        1,
        0,
        5,
        10,
        7.5,
        1
      ],
      "name": "Llum",
      "extras": {
        "name": "Llum"
      },
      "children": [
        11,
        12
      ],
      "extensions": {
        "KHR_lights_punctual": {
          "light": 0
        }
      }
    },
    {
      "name": "Cube4465_2",
      "extras": {
        "name": "Cube4465"
      },
      "mesh": 1
    },
    {
      "name": "Cube4465_1_2",
      "extras": {
        "name": "Cube4465_1"
      },
      "mesh": 2
    },
    {
      "matrix": [
        1,
        0,
        0,
        0,
        0,
        1,
        0,
        0,
        0,
        0,
        1,
        0,
        0,
        0,
        -2.78294050350337,
        1
      ],
      "name": "pillar_broken_1",
      "extras": {
        "name": "pillar_broken"
      },
      "children": [
        14,
        15
      ]
    },
    {
      "matrix": [
        1,
        0,
        0,
        0,
        0,
        1,
        0,
        0,
        0,
        0,
        1,
        0,
        2.8469270118473986,
        0,
        4.9372246553851244,
        1
      ],
      "name": "Pilar2B",
      "extras": {
        "name": "Pilar2B"
      },
      "children": [
        16
      ]
    },
    {
      "name": "Cube4465_3",
      "extras": {
        "name": "Cube4465"
      },
      "mesh": 1
    },
    {
      "name": "Cube4465_1_3",
      "extras": {
        "name": "Cube4465_1"
      },
      "mesh": 2
    },
    {
      "matrix": [
        1,
        0,
        0,
        0,
        0,
        1,
        0,
        0,
        0,
        0,
        1,
        0,
        -3.0089051859911673,
        0,
        2.1830492093350635,
        1
      ],
      "name": "Pilar2A",
      "extras": {
        "name": "pillar_broken"
      },
      "children": [
        18,
        19
      ]
    },
    {
      "name": "Cube4465_4",
      "extras": {
        "name": "Cube4465"
      },
      "mesh": 1
    },
    {
      "name": "Cube4465_1_4",
      "extras": {
        "name": "Cube4465_1"
      },
      "mesh": 2
    },
    {
      "matrix": [
        1,
        0,
        0,
        0,
        0,
        1,
        0,
        0,
        0,
        0,
        1,
        0,
        -3.0089051859911673,
        0,
        7.133887679658841,
        1
      ],
      "name": "Pilar3A",
      "extras": {
        "name": "pillar_broken"
      },
      "children": [
        21,
        22
      ]
    },
    {
      "name": "Cube4465_5",
      "extras": {
        "name": "Cube4465"
      },
      "mesh": 1
    },
    {
      "name": "Cube4465_1_5",
      "extras": {
        "name": "Cube4465_1"
      },
      "mesh": 2
    },
    {
      "matrix": [
        1,
        0,
        0,
        0,
        0,
        1,
        0,
        0,
        0,
        0,
        1,
        0,
        0,
        0,
        -2.78294050350337,
        1
      ],
      "name": "pillar_broken_2",
      "extras": {
        "name": "pillar_broken"
      },
      "children": [
        24,
        25
      ]
    },
    {
      "matrix": [
        1,
        0,
        0,
        0,
        0,
        1,
        0,
        0,
        0,
        0,
        1,
        0,
        2.8469270118473986,
        0,
        10.04939313779548,
        1
      ],
      "name": "Pilar3B",
      "extras": {
        "name": "Pilar3B"
      },
      "children": [
        26
      ]
    },
    {
      "name": "Cube4438",
      "extras": {
        "name": "Cube4438"
      },
      "mesh": 4
    },
    {
      "name": "Cube4438_1",
      "extras": {
        "name": "Cube4438_1"
      },
      "mesh": 5
    },
    {
      "name": "chest_rare",
      "extras": {
        "name": "chest_rare"
      },
      "children": [
        28,
        29
      ]
    },
    {
      "matrix": [
        1,
        0,
        0,
        0,
        0,
        1,
        0,
        0,
        0,
        0,
        1,
        0,
        0,
        0,
        9.080758486292126,
        1
      ],
      "name": "Cofre1",
      "extras": {
        "name": "Cofre1"
      },
      "children": [
        30
      ]
    },
    {
      "name": "EscenaCofregltf",
      "extras": {
        "name": "EscenaCofre.gltf"
      },
      "children": [
        2,
        6,
        9,
        10,
        13,
        17,
        20,
        23,
        27,
        31
      ]
    },
    {
      "name": "EscenaCofre.gltf",
      "children": [
        32
      ]
    }
  ],
  "bufferViews": [
    {
      "buffer": 0,
      "byteOffset": 0,
      "byteLength": 16896,
      "target": 34962,
      "byteStride": 12
    },
    {
      "buffer": 0,
      "byteOffset": 16896,
      "byteLength": 16896,
      "target": 34962,
      "byteStride": 12
    },
    {
      "buffer": 0,
      "byteOffset": 33792,
      "byteLength": 11264,
      "target": 34962,
      "byteStride": 8
    },
    {
      "buffer": 0,
      "byteOffset": 45056,
      "byteLength": 4224,
      "target": 34963
    },
    {
      "buffer": 0,
      "byteOffset": 49280,
      "byteLength": 23976,
      "target": 34962,
      "byteStride": 12
    },
    {
      "buffer": 0,
      "byteOffset": 73256,
      "byteLength": 23976,
      "target": 34962,
      "byteStride": 12
    },
    {
      "buffer": 0,
      "byteOffset": 97232,
      "byteLength": 15984,
      "target": 34962,
      "byteStride": 8
    },
    {
      "buffer": 0,
      "byteOffset": 113216,
      "byteLength": 11888,
      "target": 34963
    },
    {
      "buffer": 0,
      "byteOffset": 125104,
      "byteLength": 6600,
      "target": 34962,
      "byteStride": 12
    },
    {
      "buffer": 0,
      "byteOffset": 131704,
      "byteLength": 6600,
      "target": 34962,
      "byteStride": 12
    },
    {
      "buffer": 0,
      "byteOffset": 138304,
      "byteLength": 4400,
      "target": 34962,
      "byteStride": 8
    },
    {
      "buffer": 0,
      "byteOffset": 142704,
      "byteLength": 2148,
      "target": 34963
    },
    {
      "buffer": 0,
      "byteOffset": 144852,
      "byteLength": 48,
      "target": 34962,
      "byteStride": 12
    },
    {
      "buffer": 0,
      "byteOffset": 144900,
      "byteLength": 48,
      "target": 34962,
      "byteStride": 12
    },
    {
      "buffer": 0,
      "byteOffset": 144948,
      "byteLength": 32,
      "target": 34962,
      "byteStride": 8
    },
    {
      "buffer": 0,
      "byteOffset": 144980,
      "byteLength": 12,
      "target": 34963
    },
    {
      "buffer": 0,
      "byteOffset": 144992,
      "byteLength": 2208,
      "target": 34962,
      "byteStride": 12
    },
    {
      "buffer": 0,
      "byteOffset": 147200,
      "byteLength": 2208,
      "target": 34962,
      "byteStride": 12
    },
    {
      "buffer": 0,
      "byteOffset": 149408,
      "byteLength": 1472,
      "target": 34962,
      "byteStride": 8
    },
    {
      "buffer": 0,
      "byteOffset": 150880,
      "byteLength": 732,
      "target": 34963
    },
    {
      "buffer": 0,
      "byteOffset": 151612,
      "byteLength": 432,
      "target": 34962,
      "byteStride": 12
    },
    {
      "buffer": 0,
      "byteOffset": 152044,
      "byteLength": 432,
      "target": 34962,
      "byteStride": 12
    },
    {
      "buffer": 0,
      "byteOffset": 152476,
      "byteLength": 288,
      "target": 34962,
      "byteStride": 8
    },
    {
      "buffer": 0,
      "byteOffset": 152764,
      "byteLength": 108,
      "target": 34963
    }
  ],
  "buffers": [
    {
      "byteLength": 152872,
      "uri": "data:application/octet-stream;base64,"
    }
  ],
  "accessors": [
    {
      "bufferView": 0,
      "componentType": 5126,
      "count": 1408,
      "max": [
        1.2999999523162842,
        4.699999809265137,
        3.000000238418579
      ],
      "min": [
        -1.3000032901763916,
        0,
        -2.999999761581421
      ],
      "type": "VEC3"
    },
    {
      "bufferView": 1,
      "componentType": 5126,
      "count": 1408,
      "max": [
        1,
        1,
        1
      ],
      "min": [
        -1,
        -1,
        -1
      ],
      "type": "VEC3"
    },
    {
      "bufferView": 2,
      "componentType": 5126,
      "count": 1408,
      "max": [
        0.8750000596046448,
        1
      ],
      "min": [
        0.125,
        0
      ],
      "type": "VEC2"
    },
    {
      "bufferView": 3,
      "componentType": 5123,
      "count": 2112,
      "max": [
        1407
      ],
      "min": [
        0
      ],
      "type": "SCALAR"
    },
    {
      "bufferView": 4,
      "componentType": 5126,
      "count": 1998,
      "max": [
        0.8064917922019958,
        3.214491367340088,
        0.7776530981063843
      ],
      "min": [
        -0.7762618064880371,
        0,
        -0.8035240173339844
      ],
      "type": "VEC3"
    },
    {
      "bufferView": 5,
      "componentType": 5126,
      "count": 1998,
      "max": [
        0.999969482421875,
        0.999908447265625,
        1
      ],
      "min": [
        -0.999969482421875,
        -0.999969482421875,
        -0.999969482421875
      ],
      "type": "VEC3"
    },
    {
      "bufferView": 6,
      "componentType": 5126,
      "count": 1998,
      "max": [
        0.875,
        1
      ],
      "min": [
        0.125,
        0
      ],
      "type": "VEC2"
    },
    {
      "bufferView": 7,
      "componentType": 5123,
      "count": 5943,
      "max": [
        1997
      ],
      "min": [
        0
      ],
      "type": "SCALAR"
    },
    {
      "bufferView": 8,
      "componentType": 5126,
      "count": 550,
      "max": [
        0.8102408051490784,
        3.5014708042144775,
        0.805368185043335
      ],
      "min": [
        -0.825153112411499,
        0,
        -0.8403027057647705
      ],
      "type": "VEC3"
    },
    {
      "bufferView": 9,
      "componentType": 5126,
      "count": 550,
      "max": [
        1,
        0.9943845868110657,
        1
      ],
      "min": [
        -1,
        -1,
        -1
      ],
      "type": "VEC3"
    },
    {
      "bufferView": 10,
      "componentType": 5126,
      "count": 550,
      "max": [
        0.8066753149032593,
        1
      ],
      "min": [
        0.125,
        0
      ],
      "type": "VEC2"
    },
    {
      "bufferView": 11,
      "componentType": 5123,
      "count": 1074,
      "max": [
        549
      ],
      "min": [
        0
      ],
      "type": "SCALAR"
    },
    {
      "bufferView": 12,
      "componentType": 5126,
      "count": 4,
      "max": [
        0.5,
        0.5,
        0
      ],
      "min": [
        -0.5,
        -0.5,
        0
      ],
      "type": "VEC3"
    },
    {
      "bufferView": 13,
      "componentType": 5126,
      "count": 4,
      "max": [
        0,
        0,
        1
      ],
      "min": [
        0,
        0,
        1
      ],
      "type": "VEC3"
    },
    {
      "bufferView": 14,
      "componentType": 5126,
      "count": 4,
      "max": [
        1,
        1
      ],
      "min": [
        0,
        0
      ],
      "type": "VEC2"
    },
    {
      "bufferView": 15,
      "componentType": 5123,
      "count": 6,
      "max": [
        3
      ],
      "min": [
        0
      ],
      "type": "SCALAR"
    },
    {
      "bufferView": 16,
      "componentType": 5126,
      "count": 184,
      "max": [
        0.9199999570846558,
        0.6007004976272583,
        0.550000011920929
      ],
      "min": [
        -0.9199999570846558,
        0,
        -0.550000011920929
      ],
      "type": "VEC3"
    },
    {
      "bufferView": 17,
      "componentType": 5126,
      "count": 184,
      "max": [
        1,
        1,
        1
      ],
      "min": [
        -1,
        -1,
        -1
      ],
      "type": "VEC3"
    },
    {
      "bufferView": 18,
      "componentType": 5126,
      "count": 184,
      "max": [
        0.875,
        1
      ],
      "min": [
        0,
        0
      ],
      "type": "VEC2"
    },
    {
      "bufferView": 19,
      "componentType": 5123,
      "count": 366,
      "max": [
        183
      ],
      "min": [
        0
      ],
      "type": "SCALAR"
    },
    {
      "bufferView": 20,
      "componentType": 5126,
      "count": 36,
      "max": [
        0.8500000238418579,
        0.6007004976272583,
        0.5
      ],
      "min": [
        -0.8500000238418579,
        0.09999998658895493,
        -0.5
      ],
      "type": "VEC3"
    },
    {
      "bufferView": 21,
      "componentType": 5126,
      "count": 36,
      "max": [
        0.9787896275520325,
        1,
        0.9863887429237366
      ],
      "min": [
        -0.9787896275520325,
        -0.21173742413520813,
        -0.9863887429237366
      ],
      "type": "VEC3"
    },
    {
      "bufferView": 22,
      "componentType": 5126,
      "count": 36,
      "max": [
        0.8613669872283936,
        0.9642857313156128
      ],
      "min": [
        0.4246453642845154,
        0.019230663776397705
      ],
      "type": "VEC2"
    },
    {
      "bufferView": 23,
      "componentType": 5123,
      "count": 54,
      "max": [
        35
      ],
      "min": [
        0
      ],
      "type": "SCALAR"
    }
  ],
  "materials": [
    {
      "pbrMetallicRoughness": {
        "baseColorFactor": [
          0.1923278123140335,
          0.22819341719150543,
          0.24619518220424652,
          1
        ],
        "metallicFactor": 0,
        "roughnessFactor": 0.5
      },
      "name": "Stone"
    },
    {
      "pbrMetallicRoughness": {
        "baseColorFactor": [
          0.1923278123140335,
          0.22819341719150543,
          0.24619518220424652,
          1
        ],
        "metallicFactor": 0,
        "roughnessFactor": 0.5
      },
      "name": "Stone"
    },
    {
      "pbrMetallicRoughness": {
        "baseColorFactor": [
          0.10092172026634216,
          0.11823292821645737,
          0.12790560722351074,
          1
        ],
        "metallicFactor": 0,
        "roughnessFactor": 0.5
      },
      "name": "StoneDark"
    },
    {
      "pbrMetallicRoughness": {
        "baseColorFactor": [
          0.13563332964548108,
          0.10224173307914941,
          0.07227185067438519,
          1
        ],
        "metallicFactor": 0,
        "roughnessFactor": 1
      }
    },
    {
      "pbrMetallicRoughness": {
        "baseColorFactor": [
          0.49687275290489197,
          0.3342590034008026,
          0.10588642954826355,
          1
        ],
        "metallicFactor": 0.40909093618392944,
        "roughnessFactor": 0.2340908944606781
      },
      "name": "Gold"
    },
    {
      "pbrMetallicRoughness": {
        "baseColorFactor": [
          0.799102783203125,
          0.799102783203125,
          0.799102783203125,
          1
        ],
        "metallicFactor": 0,
        "roughnessFactor": 0.5
      },
      "doubleSided": true,
      "name": "White"
    }
  ],
  "meshes": [
    {
      "primitives": [
        {
          "mode": 4,
          "attributes": {
            "POSITION": 0,
            "NORMAL": 1,
            "TEXCOORD_0": 2
          },
          "indices": 3,
          "material": 0
        }
      ]
    },
    {
      "primitives": [
        {
          "mode": 4,
          "attributes": {
            "POSITION": 4,
            "NORMAL": 5,
            "TEXCOORD_0": 6
          },
          "indices": 7,
          "material": 1
        }
      ]
    },
    {
      "primitives": [
        {
          "mode": 4,
          "attributes": {
            "POSITION": 8,
            "NORMAL": 9,
            "TEXCOORD_0": 10
          },
          "indices": 11,
          "material": 2
        }
      ]
    },
    {
      "primitives": [
        {
          "mode": 4,
          "attributes": {
            "POSITION": 12,
            "NORMAL": 13,
            "TEXCOORD_0": 14
          },
          "indices": 15,
          "material": 3
        }
      ]
    },
    {
      "primitives": [
        {
          "mode": 4,
          "attributes": {
            "POSITION": 16,
            "NORMAL": 17,
            "TEXCOORD_0": 18
          },
          "indices": 19,
          "material": 4
        }
      ]
    },
    {
      "primitives": [
        {
          "mode": 4,
          "attributes": {
            "POSITION": 20,
            "NORMAL": 21,
            "TEXCOORD_0": 22
          },
          "indices": 23,
          "material": 5
        }
      ]
    }
  ],
  "extensions": {
    "KHR_lights_punctual": {
      "lights": [
        {
          "name": "Llum",
          "color": [
            1,
            1,
            1
          ],
          "intensity": 1,
          "type": "directional"
        }
      ]
    }
  },
  "extensionsUsed": [
    "KHR_lights_punctual"
  ]
}